<?xml version="1.0" encoding="iso-8859-1"?>
<!-- Uploaded to: SVG Repo, www.svgrepo.com, Generator: SVG Repo Mixer Tools -->
<svg height="800px" width="800px" version="1.1" id="Layer_1" xmlns="http://www.w3.org/2000/svg" xmlns:xlink="http://www.w3.org/1999/xlink" 
	 viewBox="0 0 512 512" xml:space="preserve">
<path style="fill:;" d="M121.512,380.312v-15c24.424-13.832,33.008-44.84,19.176-69.256
	c-13.832-24.424-44.84-33.008-69.256-19.176c-24.424,13.832-33.008,44.84-19.176,69.256c4.536,8.016,11.168,14.64,19.176,19.176v15
	C24.08,382.528,0,414.544,0,436.064v17.672h192.944v-17.672C192.944,414.544,168.864,382.528,121.512,380.312z"/>
<path style="fill:;" d="M440.568,380.312v-15c24.424-13.832,33.008-44.84,19.176-69.256
	c-13.832-24.424-44.84-33.008-69.256-19.176s-33.008,44.84-19.176,69.256c4.536,8.016,11.168,14.64,19.176,19.176v15
	c-47.352,2.216-71.432,34.232-71.432,55.752v17.672H512v-17.672C512,414.544,487.92,382.528,440.568,380.312z"/>
<g>
	<path style="fill:;" d="M161.216,58.264h163.848c17.784,0,32.208,14.424,32.208,32.208v106.984
		c0,17.784-14.424,32.208-32.208,32.208H161.216c-17.784,0-32.208-14.424-32.208-32.208V90.472
		C129.008,72.688,143.432,58.264,161.216,58.264z"/>
	<polygon style="fill:#333333;" points="180.52,229.656 180.52,278.76 246.808,229.656 	"/>
</g>
</svg>